<?xml version="1.0" encoding="utf-8"?>
<!-- Generator: Adobe Illustrator 23.0.1, SVG Export Plug-In . SVG Version: 6.00 Build 0)  -->
<svg version="1.1" id="Layer_1" xmlns="http://www.w3.org/2000/svg" xmlns:xlink="http://www.w3.org/1999/xlink" x="0px" y="0px"
	 viewBox="0 0 16383 16383" style="enable-background:new 0 0 16383 16383;" xml:space="preserve">
<style type="text/css">
	.st0{stroke:#000000;stroke-miterlimit:10;}
	.st1{fill:#FFFFFF;}
</style>
<path class="st0" d="M5598.86,8191.5h-412.82c-51.56,0-93.75-42.19-93.75-93.75v-412.82c0-51.56,42.19-93.75,93.75-93.75h412.82
	c51.56,0,93.75,42.19,93.75,93.75v412.82C5692.61,8149.31,5650.42,8191.5,5598.86,8191.5z"/>
<path class="st0" d="M4782.69,7361.84h-412.82c-51.56,0-93.75-42.19-93.75-93.75v-412.82c0-51.56,42.19-93.75,93.75-93.75h412.82
	c51.56,0,93.75,42.19,93.75,93.75v412.82C4876.44,7319.66,4834.25,7361.84,4782.69,7361.84z"/>
<path class="st0" d="M4782.69,8191.5h-412.82c-51.56,0-93.75-42.19-93.75-93.75v-412.82c0-51.56,42.19-93.75,93.75-93.75h412.82
	c51.56,0,93.75,42.19,93.75,93.75v412.82C4876.44,8149.31,4834.25,8191.5,4782.69,8191.5z"/>
<path class="st0" d="M4020.48,8191.5h-412.82c-51.56,0-93.75-42.19-93.75-93.75v-412.82c0-51.56,42.19-93.75,93.75-93.75h412.82
	c51.56,0,93.75,42.19,93.75,93.75v412.82C4114.23,8149.31,4072.05,8191.5,4020.48,8191.5z"/>
<path class="st0" d="M7920.46,8191.5h-412.82c-51.56,0-93.75-42.19-93.75-93.75v-412.82c0-51.56,42.19-93.75,93.75-93.75h412.82
	c51.56,0,93.75,42.19,93.75,93.75v412.82C8014.21,8149.31,7972.03,8191.5,7920.46,8191.5z"/>
<path class="st0" d="M7104.3,7361.84h-412.82c-51.56,0-93.75-42.19-93.75-93.75v-412.82c0-51.56,42.19-93.75,93.75-93.75h412.82
	c51.56,0,93.75,42.19,93.75,93.75v412.82C7198.05,7319.66,7155.86,7361.84,7104.3,7361.84z"/>
<path class="st0" d="M7104.3,8191.5h-412.82c-51.56,0-93.75-42.19-93.75-93.75v-412.82c0-51.56,42.19-93.75,93.75-93.75h412.82
	c51.56,0,93.75,42.19,93.75,93.75v412.82C7198.05,8149.31,7155.86,8191.5,7104.3,8191.5z"/>
<path class="st0" d="M6342.09,8191.5h-412.82c-51.56,0-93.75-42.19-93.75-93.75v-412.82c0-51.56,42.19-93.75,93.75-93.75h412.82
	c51.56,0,93.75,42.19,93.75,93.75v412.82C6435.84,8149.31,6393.65,8191.5,6342.09,8191.5z"/>
<g>
	<path class="st1" d="M4374.21,6832l48.94,237.77c10.71,52.19,20.65,100.52,27.53,148.85h2.29c8.41-47.36,20.65-97.62,32.88-147.88
		l60.41-238.74h56.58l57.35,233.9c13.76,56.06,24.47,105.35,32.88,152.71h2.29c6.12-47.36,16.06-96.65,28.29-151.75l52.76-234.87
		h66.52l-119.28,467.81h-61.17l-56.58-223.27c-13-52.19-23.7-98.59-32.88-153.68h-1.53c-9.18,56.06-20.65,104.39-33.64,154.65
		l-59.64,222.31h-61.17L4305.39,6832H4374.21z"/>
</g>
<g>
	<path class="st1" d="M3724.48,7983.14l-51.41,155.69h-66.09l168.17-494.97h77.11l168.91,494.97h-68.3L3900,7983.14H3724.48z
		 M3886.78,7933.2l-48.47-142.47c-11.02-32.31-18.36-61.69-25.7-90.33h-1.47c-7.34,29.38-15.42,59.49-24.97,89.59l-48.47,143.21
		H3886.78z"/>
</g>
<g>
	<path class="st1" d="M4440.89,8056.17c27.77,17.09,68.35,31.33,111.07,31.33c63.37,0,100.39-33.46,100.39-81.88
		c0-44.86-25.63-70.49-90.42-95.41c-78.32-27.77-126.74-68.35-126.74-135.99c0-74.76,61.94-130.3,155.22-130.3
		c49.13,0,84.73,11.39,106.09,23.5l-17.09,50.55c-15.66-8.54-47.7-22.78-91.14-22.78c-65.5,0-90.42,39.16-90.42,71.91
		c0,44.86,29.19,66.93,95.41,92.56c81.17,31.33,122.47,70.49,122.47,140.98c0,74.05-54.82,138.13-168.03,138.13
		c-46.28,0-96.83-13.53-122.47-30.62L4440.89,8056.17z"/>
</g>
<g>
	<path class="st1" d="M5233.04,7658.77c37.52-5.66,82.13-9.91,130.98-9.91c88.5,0,151.51,20.53,193.28,59.47
		c42.48,38.94,67.26,94.16,67.26,171.33c0,77.88-24.07,141.6-68.67,185.49c-44.6,44.6-118.23,68.67-210.98,68.67
		c-43.89,0-80.71-2.12-111.86-5.66V7658.77z M5294.63,8080.72c15.58,2.83,38.23,3.54,62.3,3.54c131.68,0,203.19-73.63,203.19-202.48
		c0.71-112.57-63.01-184.07-193.28-184.07c-31.86,0-55.93,2.83-72.21,6.37V8080.72z"/>
</g>
<path class="st1" d="M6929.93,6803.28v496.53h-64.09v-496.53H6929.93z"/>
<path class="st1" d="M6142.47,7630.95h61.64v319.51c0,126.81-62.34,165.78-144.53,165.78c-22.67,0-50.3-4.96-65.89-11.34l9.21-50.3
	c12.75,4.96,31.17,9.21,51.72,9.21c55.26,0,87.85-24.8,87.85-118.31V7630.95z"/>
<path class="st1" d="M6746.13,7640.4h64.78v242h2.23c13.4-19.36,26.81-37.23,39.46-53.61L7006,7640.4h80.42l-181.69,212.96
	l195.84,288.91h-76.7l-165.31-246.47l-47.66,55.1v191.37h-64.78V7640.4z"/>
<path class="st1" d="M7591.67,7625.48h64.05v442.49h212.04v53.75h-276.09V7625.48z"/>
</svg>
