<?xml version="1.0" encoding="utf-8"?>
<!-- Generator: Adobe Illustrator 23.0.1, SVG Export Plug-In . SVG Version: 6.00 Build 0)  -->
<svg version="1.1" id="Layer_1" xmlns="http://www.w3.org/2000/svg" xmlns:xlink="http://www.w3.org/1999/xlink" x="0px" y="0px"
	 viewBox="0 0 1920 1080" style="enable-background:new 0 0 1920 1080;" xml:space="preserve">
<style type="text/css">
	.st0{fill:#303030;}
	.st1{fill:#FFFFFF;}
	.st2{fill:#5E5E5E;}
	.st3{fill:#FF5B00;}
	.st4{fill:#4EAF2B;}
</style>
<g>
	<rect x="507.03" y="509.86" width="27.09" height="98.35"/>
	<path class="st0" d="M554.98,509.86h-68.82c-6.6,0-12-5.4-12-12v-28.19c0-6.6,5.4-12,12-12h68.82c6.6,0,12,5.4,12,12v28.19
		C566.98,504.46,561.58,509.86,554.98,509.86z"/>
	<path class="st0" d="M554.98,660.4h-68.82c-6.6,0-12-5.4-12-12v-28.19c0-6.6,5.4-12,12-12h68.82c6.6,0,12,5.4,12,12v28.19
		C566.98,655,561.58,660.4,554.98,660.4z"/>
</g>
<g>
	<polygon class="st1" points="651.17,547.99 651.17,570.09 612.26,574.22 289.76,608.52 289.76,509.55 612.26,543.86 	"/>
	<polygon class="st1" points="651.17,473.96 651.17,644.11 602.26,644.11 631.01,571.79 602.26,574.22 602.26,543.86 631.01,546.29 
		602.26,473.96 	"/>
</g>
<g>
	<rect x="236.86" y="494.13" width="27.09" height="129.8"/>
	<path class="st0" d="M284.82,494.13H216c-6.6,0-12-5.4-12-12v-28.19c0-6.6,5.4-12,12-12h68.82c6.6,0,12,5.4,12,12v28.19
		C296.82,488.73,291.42,494.13,284.82,494.13z"/>
	<path class="st0" d="M284.82,676.12H216c-6.6,0-12-5.4-12-12v-28.19c0-6.6,5.4-12,12-12h68.82c6.6,0,12,5.4,12,12v28.19
		C296.82,670.72,291.42,676.12,284.82,676.12z"/>
</g>
<path class="st1" d="M191.1,499.5h125.2c9.35,0,16.93,7.58,16.93,16.93v85.21c0,9.35-7.58,16.93-16.93,16.93H191.1V499.5z"/>
<rect x="135.89" y="483.98" class="st1" width="38.22" height="150.11"/>
<rect x="174.11" y="552.22" class="st2" width="16.99" height="13.63"/>
<polygon class="st3" points="651.17,473.96 651.17,491.58 609.27,491.58 602.26,473.96 "/>
<polygon class="st3" points="651.17,644.11 651.17,626.48 609.27,626.48 602.26,644.11 "/>
<g>
	<rect x="505.86" y="544" class="st3" width="44.01" height="11.91"/>
	<rect x="505.84" y="562.16" class="st3" width="44.01" height="11.91"/>
</g>
<path class="st3" d="M431.68,593.43c0,0,0.01,0,0.01-0.01c29.15-15.88,29.16-52.89,0-68.77l25.07,2.67
	c21.39,14.41,21.38,49.04-0.02,63.44L431.68,593.43z"/>
<g>
	
		<rect x="368.85" y="528.49" transform="matrix(-1.836970e-16 1 -1 -1.836970e-16 911.3586 152.8103)" class="st3" width="20.85" height="7.19"/>
	
		<rect x="357.89" y="528.48" transform="matrix(-1.836970e-16 1 -1 -1.836970e-16 900.3845 163.7636)" class="st3" width="20.85" height="7.19"/>
</g>
<g>
	
		<rect x="370.74" y="582.41" transform="matrix(-1.836970e-16 1 -1 -1.836970e-16 967.166 204.8459)" class="st3" width="20.85" height="7.19"/>
	
		<rect x="359.77" y="582.4" transform="matrix(-1.836970e-16 1 -1 -1.836970e-16 956.1918 215.7993)" class="st3" width="20.85" height="7.19"/>
</g>
<g>
	<ellipse class="st3" cx="415.73" cy="559.03" rx="14.7" ry="11.92"/>
	<path d="M416.8,547.11v2.3c0.25-0.01,0.5-0.03,0.76-0.03c6.54,0,11.84,4.32,11.84,9.65s-5.3,9.65-11.84,9.65
		c-0.26,0-0.51-0.02-0.76-0.03v2.3c8.08,0,14.63-5.34,14.63-11.92C431.43,552.45,424.88,547.11,416.8,547.11z"/>
</g>
<rect x="135.89" y="618.57" class="st4" width="38.22" height="15.52"/>
<rect x="135.89" y="483.98" class="st4" width="38.22" height="15.52"/>
<rect x="160.72" y="499.5" class="st4" width="13.39" height="119.07"/>
</svg>
