<?xml version="1.0" encoding="utf-8"?>
<!-- Generator: Adobe Illustrator 23.0.1, SVG Export Plug-In . SVG Version: 6.00 Build 0)  -->
<svg version="1.1" id="Layer_1" xmlns="http://www.w3.org/2000/svg" xmlns:xlink="http://www.w3.org/1999/xlink" x="0px" y="0px"
	 viewBox="0 0 1920 1080" style="enable-background:new 0 0 1920 1080;" xml:space="preserve">
<style type="text/css">
	.st0{fill:#7A0000;}
	.st1{fill:#B00000;}
	.st2{fill:#FF0000;}
	.st3{fill:#002468;}
	.st4{fill:#003497;}
	.st5{fill:#004CDA;}
	.st6{fill:url(#SVGID_1_);}
	.st7{fill:url(#SVGID_2_);}
	.st8{fill:url(#SVGID_3_);}
	.st9{fill:url(#SVGID_4_);}
	.st10{fill:url(#SVGID_5_);}
	.st11{fill:url(#SVGID_6_);}
	.st12{fill:url(#SVGID_7_);}
</style>
<g>
	<path class="st0" d="M575.17,398.94H476.1l-46.2,197.88h51.27l17.89-71.83h28.04l37.65,71.83h57.95l-47.53-82.78
		C652.08,491.07,643,398.94,575.17,398.94z M543.93,489.2h-37.92l12.82-52.61h34.98C588.52,436.59,576.51,489.2,543.93,489.2z"/>
	<path class="st1" d="M549.78,380.16H450.7l-46.2,197.88h51.27l17.89-71.83h28.04l37.65,71.83h57.95l-47.53-82.78
		C626.68,472.29,617.6,380.16,549.78,380.16z M518.53,470.42h-37.92l12.82-52.61h34.98C563.13,417.81,551.11,470.42,518.53,470.42z"
		/>
	<path class="st2" d="M524.44,361.29h-99.07l-46.2,197.88h51.27l17.89-71.83h28.04l37.65,71.83h57.95l-47.53-82.78
		C601.35,453.42,592.27,361.29,524.44,361.29z M493.2,451.55h-37.92l12.82-52.61h34.98C537.8,398.94,525.78,451.55,493.2,451.55z"/>
	<path d="M499.07,342.42h-99.07l-46.2,197.88h51.27l17.89-71.83H451l37.65,71.83h57.95l-47.53-82.78
		C575.97,434.55,566.89,342.42,499.07,342.42z M467.82,432.68H429.9l12.82-52.61h34.98C512.42,380.07,500.4,432.68,467.82,432.68z"
		/>
	<path class="st0" d="M650.7,432.76l-6.47,37.07c54.49-16.92,90.57-18.41,85.59,12.19c-79.43,2.28-109.37,20.32-115.75,50.66
		c-2.32,11.01,0.77,22.65,8.83,30.49c15.67,15.25,48.28,22.02,87.76-0.53l-3.98,14.43h47.52l25.13-112.96
		C785.81,423.31,715.21,419.15,650.7,432.76z M712.53,544.82c-20.73,9.62-37.45,5.92-45.29-1.36c-4.03-3.74-5.44-9.14-4.06-14.14
		c3.79-13.79,19.53-21.52,60.54-21.11L712.53,544.82z"/>
	<path class="st1" d="M632.28,420.44l-6.47,37.07c54.49-16.92,90.57-18.41,85.59,12.19c-79.43,2.28-109.37,20.32-115.75,50.66
		c-2.32,11.01,0.77,22.65,8.83,30.49c15.67,15.25,48.28,22.02,87.76-0.53l-3.98,14.43h47.52l25.13-112.96
		C767.39,410.98,696.79,406.82,632.28,420.44z M694.11,532.5c-20.73,9.62-37.45,5.92-45.29-1.36c-4.03-3.74-5.44-9.14-4.06-14.14
		c3.79-13.79,19.53-21.52,60.54-21.11L694.11,532.5z"/>
	<path class="st2" d="M614.38,408.23l-6.47,37.07c54.49-16.92,90.57-18.41,85.59,12.19c-79.43,2.28-109.37,20.32-115.75,50.66
		c-2.32,11.01,0.77,22.65,8.83,30.49c15.67,15.25,48.28,22.02,87.76-0.53l-3.98,14.43h47.52l25.13-112.96
		C749.49,398.78,678.89,394.62,614.38,408.23z M676.21,520.29c-20.73,9.62-37.45,5.92-45.29-1.36c-4.03-3.74-5.44-9.14-4.06-14.14
		c3.79-13.79,19.53-21.52,60.54-21.11L676.21,520.29z"/>
	<path d="M595.96,395.98l-6.47,37.07c54.49-16.92,90.57-18.41,85.59,12.19c-79.43,2.28-109.37,20.32-115.75,50.66
		c-2.32,11.01,0.77,22.65,8.83,30.49c15.67,15.25,48.28,22.02,87.76-0.53l-3.98,14.43h47.52l25.13-112.96
		C731.07,386.52,660.47,382.36,595.96,395.98z M657.79,508.04c-20.74,9.62-37.45,5.92-45.29-1.36c-4.03-3.74-5.44-9.14-4.06-14.14
		c3.79-13.79,19.53-21.52,60.54-21.11L657.79,508.04z"/>
	<path class="st0" d="M888.11,506.56l-9.52,40.76c-32.38,17.75-116.04,18.54-116.04-46.03c0-86.42,105.12-105.9,144.67-76.62
		l-8.62,36.91c-38.42-32.93-89.6-17.18-89.6,32.82C809.01,531.02,850.16,538.3,888.11,506.56z"/>
	<path class="st1" d="M876.93,500.74l-9.52,40.76c-32.38,17.75-116.04,18.54-116.04-46.03c0-86.42,105.12-105.9,144.67-76.62
		l-8.62,36.91c-38.42-32.93-89.6-17.18-89.6,32.82C797.83,525.2,838.97,532.49,876.93,500.74z"/>
	<path class="st2" d="M864.55,494.34l-9.52,40.76C822.66,552.86,739,553.65,739,489.08c0-86.42,105.12-105.9,144.67-76.62
		l-8.62,36.91c-38.42-32.93-89.6-17.18-89.6,32.82C785.45,518.81,826.59,526.09,864.55,494.34z"/>
	<path d="M852.22,489.2l-9.52,40.76c-32.38,17.75-116.04,18.54-116.04-46.03c0-86.42,105.12-105.9,144.67-76.62l-8.62,36.91
		c-38.42-32.93-89.6-17.18-89.6,32.82C773.12,513.67,814.26,520.95,852.22,489.2z"/>
	<path class="st3" d="M1378.28,514.19l-47.53,82.78h57.95l37.65-71.83h28.04l17.89,71.83h51.27l-46.2-197.88h-99.07
		C1310.46,399.1,1301.38,491.23,1378.28,514.19z M1399.65,436.75h34.98l12.82,52.61h-37.92
		C1376.95,489.36,1364.93,436.75,1399.65,436.75z"/>
	<path class="st4" d="M1403.68,495.41l-47.53,82.78h57.95l37.65-71.83h28.04l17.89,71.83h51.27l-46.2-197.88h-99.07
		C1335.85,380.31,1326.77,472.44,1403.68,495.41z M1425.05,417.97h34.98l12.82,52.61h-37.92
		C1402.35,470.57,1390.33,417.97,1425.05,417.97z"/>
	<path class="st5" d="M1429.01,476.54l-47.53,82.78h57.95l37.65-71.83h28.04l17.89,71.83h51.27l-46.2-197.88h-99.07
		C1361.18,361.44,1352.11,453.57,1429.01,476.54z M1450.38,399.1h34.98l12.82,52.61h-37.92
		C1427.68,451.71,1415.66,399.1,1450.38,399.1z"/>
	<path d="M1454.39,457.67l-47.53,82.78h57.95l37.65-71.83h28.04l17.89,71.83h51.27l-46.2-197.88h-99.07
		C1386.56,342.58,1377.48,434.71,1454.39,457.67z M1475.76,380.23h34.98l12.82,52.61h-37.92
		C1453.06,432.84,1441.04,380.23,1475.76,380.23z"/>
	<path class="st3" d="M1174.12,464.27l25.13,112.96h47.52l-3.98-14.43c39.48,22.56,72.09,15.78,87.76,0.53
		c8.06-7.85,11.15-19.49,8.83-30.49c-6.39-30.34-36.32-48.38-115.75-50.66c-4.98-30.6,31.1-29.11,85.59-12.19l-6.47-37.07
		C1238.25,419.31,1167.65,423.46,1174.12,464.27z M1229.73,508.36c41.02-0.41,56.75,7.32,60.54,21.11c1.37,5-0.03,10.4-4.06,14.14
		c-7.83,7.28-24.55,10.98-45.29,1.36L1229.73,508.36z"/>
	<path class="st4" d="M1192.54,451.94l25.13,112.96h47.52l-3.98-14.43c39.48,22.56,72.09,15.78,87.76,0.53
		c8.06-7.85,11.15-19.49,8.83-30.49c-6.39-30.34-36.32-48.38-115.75-50.66c-4.98-30.6,31.1-29.11,85.59-12.19l-6.47-37.07
		C1256.67,406.98,1186.07,411.14,1192.54,451.94z M1248.15,496.04c41.02-0.41,56.75,7.32,60.54,21.11
		c1.37,5.01-0.03,10.4-4.06,14.14c-7.83,7.28-24.55,10.98-45.29,1.36L1248.15,496.04z"/>
	<path class="st5" d="M1210.44,439.74l25.13,112.96h47.52l-3.98-14.43c39.48,22.56,72.09,15.78,87.76,0.53
		c8.06-7.85,11.15-19.48,8.83-30.49c-6.39-30.34-36.32-48.38-115.75-50.66c-4.98-30.6,31.1-29.11,85.59-12.19l-6.47-37.07
		C1274.57,394.78,1203.97,398.93,1210.44,439.74z M1266.06,483.83c41.02-0.41,56.75,7.32,60.54,21.11c1.37,5-0.03,10.4-4.06,14.14
		c-7.83,7.28-24.55,10.98-45.29,1.36L1266.06,483.83z"/>
	<path d="M1228.86,427.48l25.13,112.96h47.52l-3.98-14.43c39.48,22.56,72.09,15.78,87.76,0.53c8.06-7.85,11.15-19.49,8.83-30.49
		c-6.39-30.34-36.32-48.38-115.75-50.66c-4.98-30.6,31.1-29.11,85.59-12.19l-6.47-37.07
		C1292.99,382.52,1222.39,386.68,1228.86,427.48z M1284.47,471.58c41.02-0.41,56.75,7.32,60.54,21.11c1.37,5-0.03,10.4-4.06,14.14
		c-7.83,7.28-24.55,10.98-45.29,1.36L1284.47,471.58z"/>
	<path class="st3" d="M1065.34,506.71l9.52,40.76c32.38,17.75,116.04,18.54,116.04-46.03c0-86.42-105.12-105.9-144.67-76.62
		l8.62,36.91c38.42-32.93,89.6-17.18,89.6,32.82C1144.44,531.18,1103.3,538.46,1065.34,506.71z"/>
	<path class="st4" d="M1076.53,500.9l9.52,40.76c32.38,17.75,116.04,18.54,116.04-46.03c0-86.42-105.12-105.9-144.67-76.62
		l8.62,36.91c38.42-32.93,89.6-17.18,89.6,32.82C1155.63,525.36,1114.48,532.64,1076.53,500.9z"/>
	<path class="st5" d="M1088.9,494.5l9.52,40.76c32.38,17.75,116.04,18.54,116.04-46.03c0-86.42-105.12-105.9-144.67-76.62
		l8.62,36.91c38.42-32.93,89.6-17.18,89.6,32.82C1168,518.96,1126.86,526.25,1088.9,494.5z"/>
	<path d="M1101.24,489.36l9.52,40.76c32.38,17.75,116.04,18.54,116.04-46.03c0-86.42-105.12-105.9-144.67-76.62l8.62,36.91
		c38.42-32.93,89.6-17.18,89.6,32.82C1180.34,513.82,1139.19,521.11,1101.24,489.36z"/>
	<linearGradient id="SVGID_1_" gradientUnits="userSpaceOnUse" x1="900.8187" y1="489.2537" x2="1048.1008" y2="489.2537">
		<stop  offset="0.3" style="stop-color:#7A0000"/>
		<stop  offset="0.7" style="stop-color:#002468"/>
	</linearGradient>
	<path class="st6" d="M1041.76,497.06c17.46-52.06-1.49-77.07-52.42-78.3c-68.18,0-88.52,48.25-88.52,81.34
		c0,75.96,99.28,62.8,128.74,49.22l7.88-33.75c-48.1,18.02-95.95,22.21-93.56-18.51H1041.76z M1006.94,472.15h-59.97
		C963.71,435.73,1013.34,441.45,1006.94,472.15z"/>
	<linearGradient id="SVGID_2_" gradientUnits="userSpaceOnUse" x1="900.8187" y1="482.7428" x2="1048.1008" y2="482.7428">
		<stop  offset="0.3" style="stop-color:#B00000"/>
		<stop  offset="0.7" style="stop-color:#003497"/>
	</linearGradient>
	<path class="st7" d="M1041.76,490.55c17.46-52.06-1.49-77.07-52.42-78.3c-68.18,0-88.52,48.25-88.52,81.34
		c0,75.96,99.28,62.8,128.74,49.22l7.88-33.75c-48.1,18.02-95.95,22.21-93.56-18.51H1041.76z M1006.94,465.64h-59.97
		C963.71,429.22,1013.34,434.94,1006.94,465.64z"/>
	<linearGradient id="SVGID_3_" gradientUnits="userSpaceOnUse" x1="900.8187" y1="476.2319" x2="1048.1008" y2="476.2319">
		<stop  offset="0.3" style="stop-color:#FF0000"/>
		<stop  offset="0.7" style="stop-color:#004CDA"/>
	</linearGradient>
	<path class="st8" d="M1041.76,484.04c17.46-52.06-1.49-77.07-52.42-78.3c-68.18,0-88.52,48.25-88.52,81.34
		c0,75.96,99.28,62.8,128.74,49.22l7.88-33.75c-48.1,18.02-95.95,22.21-93.56-18.51H1041.76z M1006.94,459.13h-59.97
		C963.71,422.71,1013.34,428.43,1006.94,459.13z"/>
	<path d="M1040.49,477.68c17.46-52.06-1.49-77.07-52.42-78.3c-68.18,0-88.52,48.25-88.52,81.34c0,75.96,99.28,62.8,128.74,49.22
		l7.88-33.75c-48.1,18.02-95.95,22.21-93.56-18.51H1040.49z M1005.68,452.78h-59.97C962.45,416.36,1012.07,422.08,1005.68,452.78z"
		/>
	<g>
		<linearGradient id="SVGID_4_" gradientUnits="userSpaceOnUse" x1="524.1113" y1="697.2311" x2="561.6955" y2="697.2311">
			<stop  offset="0.1" style="stop-color:#F3020C"/>
			<stop  offset="0.9" style="stop-color:#EC0413"/>
		</linearGradient>
		<polygon class="st9" points="524.11,648.83 524.11,746.22 561.7,742.31 561.7,648.24 		"/>
		<linearGradient id="SVGID_5_" gradientUnits="userSpaceOnUse" x1="449.122" y1="701.6911" x2="492.5497" y2="701.6911">
			<stop  offset="0.1" style="stop-color:#FF0000"/>
			<stop  offset="0.9" style="stop-color:#FE0001"/>
		</linearGradient>
		<polygon class="st10" points="449.12,650.04 449.12,754.05 492.55,749.52 492.55,649.34 		"/>
		<linearGradient id="SVGID_6_" gradientUnits="userSpaceOnUse" x1="589.2855" y1="685.3569" x2="1626.1632" y2="685.3569">
			<stop  offset="0.1" style="stop-color:#E2061D"/>
			<stop  offset="0.9" style="stop-color:#004CDA"/>
		</linearGradient>
		<polygon class="st11" points="589.29,647.81 589.29,739.43 1626.16,631.28 		"/>
		<linearGradient id="SVGID_7_" gradientUnits="userSpaceOnUse" x1="353.8024" y1="707.1765" x2="428.3196" y2="707.1765">
			<stop  offset="0.1" style="stop-color:#FF0000"/>
			<stop  offset="0.9" style="stop-color:#FF0000"/>
		</linearGradient>
		<polygon class="st12" points="354.76,651.53 353.8,653.26 353.8,763.99 428.32,756.21 428.32,650.36 		"/>
	</g>
</g>
</svg>
