<?xml version="1.0" encoding="utf-8"?>
<!-- Generator: Adobe Illustrator 23.0.1, SVG Export Plug-In . SVG Version: 6.00 Build 0)  -->
<svg version="1.1" id="Layer_1" xmlns="http://www.w3.org/2000/svg" xmlns:xlink="http://www.w3.org/1999/xlink" x="0px" y="0px"
	 viewBox="0 0 8192 8192" style="enable-background:new 0 0 8192 8192;" xml:space="preserve">
<style type="text/css">
	.st0{stroke:#000000;stroke-miterlimit:10;}
	.st1{fill:#FFFFFF;}
</style>
<path class="st0" d="M2799.6,4096h-206.4c-25.8,0-46.9-21.1-46.9-46.9v-206.4c0-25.8,21.1-46.9,46.9-46.9h206.4
	c25.8,0,46.9,21.1,46.9,46.9v206.4C2846.5,4074.9,2825.4,4096,2799.6,4096z"/>
<path class="st0" d="M2391.5,3681.1h-206.4c-25.8,0-46.9-21.1-46.9-46.9v-206.4c0-25.8,21.1-46.9,46.9-46.9h206.4
	c25.8,0,46.9,21.1,46.9,46.9v206.4C2438.4,3660.1,2417.3,3681.1,2391.5,3681.1z"/>
<path class="st0" d="M2391.5,4096h-206.4c-25.8,0-46.9-21.1-46.9-46.9v-206.4c0-25.8,21.1-46.9,46.9-46.9h206.4
	c25.8,0,46.9,21.1,46.9,46.9v206.4C2438.4,4074.9,2417.3,4096,2391.5,4096z"/>
<path class="st0" d="M2010.4,4096h-206.4c-25.8,0-46.9-21.1-46.9-46.9v-206.4c0-25.8,21.1-46.9,46.9-46.9h206.4
	c25.8,0,46.9,21.1,46.9,46.9v206.4C2057.2,4074.9,2036.1,4096,2010.4,4096z"/>
<g>
	<path class="st1" d="M2187.2,3416.2l24.5,118.9c5.4,26.1,10.3,50.3,13.8,74.4h1.1c4.2-23.7,10.3-48.8,16.4-73.9l30.2-119.4h28.3
		l28.7,117c6.9,28,12.2,52.7,16.4,76.4h1.1c3.1-23.7,8-48.3,14.1-75.9l26.4-117.4h33.3l-59.6,233.9h-30.6l-28.3-111.6
		c-6.5-26.1-11.9-49.3-16.4-76.8h-0.8c-4.6,28-10.3,52.2-16.8,77.3l-29.8,111.2h-30.6l-55.8-233.9H2187.2z"/>
</g>
<g>
	<path class="st1" d="M1862.4,3991.8l-25.7,77.8h-33l84.1-247.5h38.6l84.5,247.5h-34.2l-26.4-77.8H1862.4z M1943.5,3966.8
		l-24.2-71.2c-5.5-16.2-9.2-30.8-12.9-45.2h-0.7c-3.7,14.7-7.7,29.7-12.5,44.8l-24.2,71.6L1943.5,3966.8L1943.5,3966.8z"/>
</g>
<g>
	<path class="st1" d="M2220.6,4028.3c13.9,8.5,34.2,15.7,55.5,15.7c31.7,0,50.2-16.7,50.2-40.9c0-22.4-12.8-35.2-45.2-47.7
		c-39.2-13.9-63.4-34.2-63.4-68c0-37.4,31-65.2,77.6-65.2c24.6,0,42.4,5.7,53,11.8l-8.5,25.3c-7.8-4.3-23.9-11.4-45.6-11.4
		c-32.8,0-45.2,19.6-45.2,36c0,22.4,14.6,33.5,47.7,46.3c40.6,15.7,61.2,35.2,61.2,70.5c0,37-27.4,69.1-84,69.1
		c-23.1,0-48.4-6.8-61.2-15.3L2220.6,4028.3z"/>
</g>
<g>
	<path class="st1" d="M2616.7,3829.6c18.8-2.8,41.1-5,65.5-5c44.3,0,75.8,10.3,96.6,29.7c21.2,19.5,33.6,47.1,33.6,85.7
		c0,38.9-12,70.8-34.3,92.8c-22.3,22.3-59.1,34.3-105.5,34.3c-21.9,0-40.4-1.1-55.9-2.8L2616.7,3829.6L2616.7,3829.6z
		 M2647.5,4040.6c7.8,1.4,19.1,1.8,31.2,1.8c65.8,0,101.6-36.8,101.6-101.2c0.4-56.3-31.5-92-96.6-92c-15.9,0-28,1.4-36.1,3.2
		V4040.6z"/>
</g>
</svg>
