<?xml version="1.0" encoding="utf-8"?>
<!-- Generator: Adobe Illustrator 23.0.1, SVG Export Plug-In . SVG Version: 6.00 Build 0)  -->
<svg version="1.1" id="Layer_1" xmlns="http://www.w3.org/2000/svg" xmlns:xlink="http://www.w3.org/1999/xlink" x="0px" y="0px"
	 viewBox="0 0 16383 16383" style="enable-background:new 0 0 16383 16383;" xml:space="preserve">
<style type="text/css">
	.st0{stroke:#000000;stroke-miterlimit:10;}
	.st1{fill:#FFFFFF;}
</style>
<path class="st0" d="M8688.47,8549h-206.42c-25.78,0-46.88-21.1-46.88-46.88V8295.7c0-25.78,21.1-46.88,46.88-46.88h206.42
	c25.78,0,46.88,21.1,46.88,46.88v206.42C8735.35,8527.9,8714.26,8549,8688.47,8549z"/>
<path class="st0" d="M8280.37,8134.14h-206.42c-25.78,0-46.88-21.1-46.88-46.88v-206.42c0-25.78,21.1-46.88,46.88-46.88h206.42
	c25.78,0,46.88,21.1,46.88,46.88v206.42C8327.24,8113.05,8306.15,8134.14,8280.37,8134.14z"/>
<path class="st0" d="M8280.37,8549h-206.42c-25.78,0-46.88-21.1-46.88-46.88V8295.7c0-25.78,21.1-46.88,46.88-46.88h206.42
	c25.78,0,46.88,21.1,46.88,46.88v206.42C8327.24,8527.9,8306.15,8549,8280.37,8549z"/>
<path class="st0" d="M7899.24,8549h-206.42c-25.78,0-46.88-21.1-46.88-46.88V8295.7c0-25.78,21.1-46.88,46.88-46.88h206.42
	c25.78,0,46.88,21.1,46.88,46.88v206.42C7946.12,8527.9,7925.02,8549,7899.24,8549z"/>
<path class="st1" d="M8193.18,7854.85v248.28h-32.05v-248.28H8193.18z"/>
<path class="st1" d="M7799.42,8268.71h30.82v159.76c0,63.41-31.17,82.89-72.27,82.89c-11.34,0-25.15-2.48-32.95-5.67l4.6-25.15
	c6.38,2.48,15.59,4.61,25.86,4.61c27.63,0,43.93-12.4,43.93-59.16L7799.42,8268.71L7799.42,8268.71z"/>
<path class="st1" d="M8101.27,8273.43h32.39v121.01h1.12c6.7-9.68,13.41-18.62,19.73-26.81l76.71-94.2h40.21l-90.85,106.49
	l97.93,144.46h-38.35l-82.66-123.24l-23.83,27.55v95.69h-32.39L8101.27,8273.43L8101.27,8273.43z"/>
<path class="st1" d="M8524.07,8265.97h32.03v221.26h106.03v26.88h-138.05V8265.97z"/>
</svg>
