<?xml version="1.0" encoding="utf-8"?>
<!-- Generator: Adobe Illustrator 23.0.1, SVG Export Plug-In . SVG Version: 6.00 Build 0)  -->
<svg version="1.1" id="Layer_1" xmlns="http://www.w3.org/2000/svg" xmlns:xlink="http://www.w3.org/1999/xlink" x="0px" y="0px"
	 viewBox="0 0 16383 16383" style="enable-background:new 0 0 16383 16383;" xml:space="preserve">
<style type="text/css">
	.st0{fill:#FFFFFF;}
	.st1{fill:#FF8F00;}
	.st2{fill:#3EB5E5;}
	.st3{fill:#FE0000;}
	.st4{fill:#FF0000;}
</style>
<rect x="8024.21" y="8117.05" class="st0" width="157.31" height="31.35"/>
<g>
	<polygon class="st1" points="8027.47,8122.03 8027.47,8143.18 8047.45,8126.26 	"/>
	<path d="M8026.71,8121.02v23.28h5.6l16.57-18.39L8026.71,8121.02z M8027.47,8122.03l19.98,4.23l-19.98,16.92V8122.03z
		 M8032.13,8143.85H8028l18.79-16.35L8032.13,8143.85z"/>
	<polygon class="st1" points="8036.19,8124.17 8036.19,8122.75 8037.67,8122.75 8037.67,8124.44 	"/>
	<path d="M8038.64,8134.29c1.4,0,3.08,0,3.08-1.24l0-9.2c0-2.97-0.66-3.71-2.73-3.71h-7.04v25.03h4.01v-9.3l5.33,9.3h3.54
		L8038.64,8134.29z M8036.19,8133.04v-9.62c1.28,0,1.48,0.29,1.48,0.64v8.21C8037.67,8132.65,8037.28,8133.04,8036.19,8133.04z"/>
	<polygon class="st2" points="8028,8143.85 8032.13,8143.85 8046.79,8127.5 	"/>
	
		<rect x="8026.16" y="8133.71" transform="matrix(0.7632 -0.6462 0.6462 0.7632 -3352.6294 7120.5747)" class="st1" width="23.22" height="0.65"/>
</g>
<g>
	<polyline class="st1" points="8069.61,8126.26 8049.64,8122.03 8049.64,8143.18 8069.61,8126.26 	"/>
	<polyline class="st2" points="8068.96,8127.5 8050.17,8143.85 8054.3,8143.85 8068.96,8127.5 	"/>
	<polyline points="8071.04,8125.9 8048.88,8121.02 8048.88,8144.29 8054.48,8144.29 8071.04,8125.9 	"/>
	<polyline class="st1" points="8069.61,8126.26 8049.64,8143.18 8049.64,8122.03 8069.61,8126.26 	"/>
	<polygon class="st1" points="8057.85,8124.2 8057.85,8122.18 8059.93,8122.18 8059.93,8124.59 	"/>
	<path d="M8062.2,8120.14h-6.43c-0.91,0-1.64,0.73-1.64,1.64v23.39h4.01h1.69h3.98v-23.41
		C8063.82,8120.86,8063.09,8120.14,8062.2,8120.14z M8059.82,8145.17h-1.69v-9.49h1.69V8145.17z M8059.83,8130.83
		c0,0.47-0.38,0.85-0.85,0.85c-0.47,0-0.85-0.38-0.85-0.85v-7.8c0-0.47,0.38-0.85,0.85-0.85c0.47,0,0.85,0.38,0.85,0.85V8130.83z"/>
	<polyline class="st2" points="8068.96,8127.5 8054.3,8143.85 8050.17,8143.85 8068.96,8127.5 	"/>
	<polyline class="st1" points="8069,8126.78 8051.28,8141.79 8050.86,8141.29 8068.58,8126.28 	"/>
</g>
<g>
	<polyline class="st1" points="8091.78,8126.26 8071.8,8122.03 8071.8,8143.18 8091.78,8126.26 	"/>
	<polyline class="st2" points="8091.12,8127.5 8072.33,8143.85 8076.46,8143.85 8091.12,8127.5 	"/>
	<polyline points="8093.21,8125.9 8071.04,8121.02 8071.04,8144.29 8076.64,8144.29 8093.21,8125.9 	"/>
	<polyline class="st1" points="8091.78,8126.26 8071.8,8143.18 8071.8,8122.03 8091.78,8126.26 	"/>
	<polygon class="st1" points="8080.01,8124.2 8080.01,8122.18 8082.1,8122.18 8082.1,8124.59 	"/>
	<path d="M8082,8141.8v0.77c0,0.3-0.25,0.55-0.55,0.55h-0.59c-0.3,0-0.55-0.25-0.55-0.55v-19.84c0-0.3,0.25-0.55,0.55-0.55h0.59
		c0.3,0,0.55,0.25,0.55,0.55v2.28h4v-3.78c0-0.61-0.49-1.1-1.1-1.1h-1.79H8082h-1.69h-0.02h-0.77h-2.09c-0.62,0-1.12,0.5-1.12,1.12
		v22.81c0,0.61,0.49,1.1,1.1,1.1h1.27h1.63h1.69h0.02h1.88h0.98c0.62,0,1.12-0.5,1.12-1.12v-2.24H8082z"/>
	<polyline class="st2" points="8091.12,8127.5 8076.46,8143.85 8072.33,8143.85 8091.12,8127.5 	"/>
	<polyline class="st1" points="8091.17,8126.78 8073.44,8141.79 8073.03,8141.29 8090.75,8126.28 	"/>
</g>
<g>
	<polygon class="st1" points="8093.97,8122.08 8093.97,8143.23 8113.94,8126.31 	"/>
	<path d="M8093.21,8121.07v23.28h5.6l16.57-18.39L8093.21,8121.07z M8093.97,8122.08l19.98,4.23l-19.98,16.92V8122.08z
		 M8098.63,8143.9h-4.13l18.79-16.35L8098.63,8143.9z"/>
	<polygon points="8108.22,8120 8098.45,8120 8098.45,8145.31 8108.22,8145.31 8108.22,8141.98 8104.45,8142.04 8104.45,8133.97 
		8108.22,8133.97 8108.22,8129.85 8104.49,8129.85 8104.49,8123.46 8108.22,8123.46 	"/>
	<polygon class="st2" points="8094.5,8143.9 8098.63,8143.9 8113.29,8127.55 	"/>
	
		<rect x="8092.65" y="8133.76" transform="matrix(0.7632 -0.6462 0.6462 0.7632 -3336.9128 7163.5566)" class="st1" width="23.22" height="0.65"/>
</g>
<polygon class="st1" points="8160.5,8122.03 8160.5,8143.18 8180.47,8126.26 "/>
<path d="M8159.74,8121.02v23.28h5.6l16.57-18.39L8159.74,8121.02z M8160.5,8122.03l19.98,4.23l-19.98,16.92V8122.03z
	 M8165.16,8143.85h-4.13l18.79-16.35L8165.16,8143.85z"/>
<polygon class="st1" points="8169.22,8124.17 8169.22,8122.75 8170.69,8122.75 8170.69,8124.44 "/>
<path d="M8163.98,8145.17h3.54l5.33-9.3v9.3h4.01v-25.03h-7.04c-2.06,0-2.73,0.74-2.73,3.71l0,9.2c0,1.24,1.69,1.24,3.08,1.24
	L8163.98,8145.17z M8171.15,8132.27v-8.21c0-0.35,0.19-0.64,1.48-0.64v9.62C8171.54,8133.04,8171.15,8132.65,8171.15,8132.27z"/>
<polygon class="st2" points="8161.03,8143.85 8165.16,8143.85 8179.82,8127.5 "/>
<rect x="8159.18" y="8133.71" transform="matrix(0.7632 -0.6462 0.6462 0.7632 -3321.1238 7206.5371)" class="st1" width="23.22" height="0.65"/>
<g>
	<polyline class="st1" points="8158.31,8126.26 8138.33,8122.03 8138.33,8143.18 8158.31,8126.26 	"/>
	<polyline class="st2" points="8157.65,8127.5 8138.86,8143.85 8142.99,8143.85 8157.65,8127.5 	"/>
	<polyline points="8159.74,8125.9 8137.57,8121.02 8137.57,8144.29 8143.17,8144.29 8159.74,8125.9 	"/>
	<polyline class="st1" points="8158.31,8126.26 8138.33,8143.18 8138.33,8122.03 8158.31,8126.26 	"/>
	<polygon class="st1" points="8146.54,8124.2 8146.54,8122.18 8148.63,8122.18 8148.63,8124.59 	"/>
	<path d="M8150.89,8120.14h-6.43c-0.91,0-1.64,0.73-1.64,1.64v23.39h4.01h1.69h3.98v-23.41
		C8152.51,8120.86,8151.79,8120.14,8150.89,8120.14z M8148.51,8145.17h-1.69v-9.49h1.69V8145.17z M8148.53,8130.83
		c0,0.47-0.38,0.85-0.85,0.85c-0.47,0-0.85-0.38-0.85-0.85v-7.8c0-0.47,0.38-0.85,0.85-0.85c0.47,0,0.85,0.38,0.85,0.85V8130.83z"/>
	<polyline class="st2" points="8157.65,8127.5 8142.99,8143.85 8138.86,8143.85 8157.65,8127.5 	"/>
	<polyline class="st1" points="8157.7,8126.78 8139.97,8141.79 8139.56,8141.29 8157.28,8126.28 	"/>
</g>
<g>
	<polyline class="st1" points="8136.14,8126.26 8116.17,8122.03 8116.17,8143.18 8136.14,8126.26 	"/>
	<polyline class="st2" points="8135.49,8127.5 8116.7,8143.85 8120.83,8143.85 8135.49,8127.5 	"/>
	<polyline points="8137.57,8125.9 8115.41,8121.02 8115.41,8144.29 8121,8144.29 8137.57,8125.9 	"/>
	<polyline class="st1" points="8136.14,8126.26 8116.17,8143.18 8116.17,8122.03 8136.14,8126.26 	"/>
	<polygon class="st1" points="8124.38,8124.2 8124.38,8122.18 8126.46,8122.18 8126.46,8124.59 	"/>
	<path d="M8126.36,8141.8v0.77c0,0.3-0.25,0.55-0.55,0.55h-0.59c-0.3,0-0.55-0.25-0.55-0.55v-19.84c0-0.3,0.25-0.55,0.55-0.55h0.59
		c0.3,0,0.55,0.25,0.55,0.55v2.28h4v-3.78c0-0.61-0.49-1.1-1.1-1.1h-1.79h-1.11h-1.69h-0.02h-0.77h-2.09c-0.62,0-1.12,0.5-1.12,1.12
		v22.81c0,0.61,0.49,1.1,1.1,1.1h1.27h1.63h1.69h0.02h1.88h0.98c0.62,0,1.12-0.5,1.12-1.12v-2.24H8126.36z"/>
	<polyline class="st2" points="8135.49,8127.5 8120.83,8143.85 8116.7,8143.85 8135.49,8127.5 	"/>
	<polyline class="st1" points="8135.53,8126.78 8117.81,8141.79 8117.39,8141.29 8135.11,8126.28 	"/>
</g>
<rect x="8183.71" y="8117.06" class="st3" width="4.66" height="21.53"/>
<rect x="8017.78" y="8117.06" class="st3" width="4.66" height="21.53"/>
<rect x="8183.71" y="8139.1" transform="matrix(-1 -1.224647e-16 1.224647e-16 -1 16372.0723 16282.8467)" class="st0" width="4.66" height="4.66"/>
<path d="M8015.6,8114.57v2.48v21.53v0.51v4.66v6.98h174.95v-6.98v-4.66v-0.51v-21.53v-2.48H8015.6z M8022.44,8143.75h-4.66v-4.66
	h4.66V8143.75z M8022.44,8138.59h-4.66v-21.53h4.66V8138.59z M8181.52,8148.41h-157.31v-31.35h157.31V8148.41z M8188.36,8143.75
	h-4.66v-4.66h4.66V8143.75z M8188.36,8138.59h-4.66v-21.53h4.66V8138.59z"/>
<rect x="8040.75" y="8091.93" width="124.64" height="22.64"/>
<rect x="8043.27" y="8094.43" class="st4" width="117.23" height="18.97"/>
<line x1="5631.83" y1="8943" x2="5019.42" y2="8943"/>
<g>
	<polygon class="st0" points="8067.21,8101.71 8062.65,8101.71 8062.65,8111.42 8059.19,8111.42 8059.19,8101.71 8054.67,8101.71 
		8054.67,8098.18 8067.21,8098.18 	"/>
	<rect x="8068.21" y="8098.18" class="st0" width="3.39" height="13.24"/>
	<rect x="8111.81" y="8098.18" class="st0" width="3.39" height="13.24"/>
	<polygon class="st0" points="8078.1,8098.18 8078.1,8103.3 8072.95,8103.3 8072.95,8106.17 8078.1,8106.17 8078.1,8111.42 
		8081.49,8111.42 8081.49,8098.18 	"/>
	<path class="st0" d="M8094.21,8098.18v7.52c0,1.41-1.15,2.56-2.56,2.56h-2.59c-1.41,0-2.56-1.15-2.56-2.56v-7.52h-3.46v8.16
		c0,2.81,2.27,5.08,5.08,5.08h4.39c2.81,0,5.08-2.27,5.08-5.08v-8.16H8094.21z"/>
	<path class="st0" d="M8128.24,8098.18v7.52c0,1.41-1.15,2.56-2.56,2.56h-2.59c-1.41,0-2.56-1.15-2.56-2.56v-7.52h-3.46v8.16
		c0,2.81,2.27,5.08,5.08,5.08h4.39c2.81,0,5.08-2.27,5.08-5.08v-8.16H8128.24z"/>
	<polygon class="st0" points="8099.15,8098.18 8102.47,8098.18 8102.47,8108.03 8110.52,8108.03 8110.52,8111.42 8099.15,8111.42 	
		"/>
	<path class="st0" d="M8131.62,8111.31h3.32l1.65-7.18l3.27,6.34c0.66,1.27,2.47,1.28,3.13,0.01l3.33-6.35l1.89,7.18h3.25
		l-3.07-12.06c-0.38-1.51-2.44-1.73-3.13-0.33l-3.73,7.53l-3.57-7.34c-0.74-1.52-2.98-1.29-3.39,0.35L8131.62,8111.31z"/>
</g>
</svg>
