<?xml version="1.0" encoding="utf-8"?>
<!-- Generator: Adobe Illustrator 22.1.0, SVG Export Plug-In . SVG Version: 6.00 Build 0)  -->
<svg version="1.1" id="Layer_1" xmlns="http://www.w3.org/2000/svg" xmlns:xlink="http://www.w3.org/1999/xlink" x="0px" y="0px"
	 viewBox="0 0 720 720" style="enable-background:new 0 0 720 720;" xml:space="preserve">
<style type="text/css">
	.st0{fill:url(#SVGID_1_);}
	.st1{fill:#FFFFFF;}
</style>
<linearGradient id="SVGID_1_" gradientUnits="userSpaceOnUse" x1="584.5448" y1="573.0719" x2="222.8912" y2="56.577">
	<stop  offset="0" style="stop-color:#E8E8E8"/>
	<stop  offset="3.155524e-02" style="stop-color:#C6C6C6"/>
	<stop  offset="7.580179e-02" style="stop-color:#9D9D9D"/>
	<stop  offset="0.1255" style="stop-color:#777777"/>
	<stop  offset="0.1796" style="stop-color:#575757"/>
	<stop  offset="0.2395" style="stop-color:#3B3B3B"/>
	<stop  offset="0.307" style="stop-color:#252525"/>
	<stop  offset="0.3859" style="stop-color:#141414"/>
	<stop  offset="0.4834" style="stop-color:#090909"/>
	<stop  offset="0.6202" style="stop-color:#020202"/>
	<stop  offset="1" style="stop-color:#000000"/>
</linearGradient>
<path class="st0" d="M640.7,377.7c0,0.1,0.1,0.3,0.1,0.5c2.5,9,4.2,18.2,5.3,27.4c0,0.1,0,0.2,0,0.3c0,0,0,0.1,0,0.1
	c3.2,28.1-0.1,56.5-9.4,83.1c0,0,0,0,0,0.1l0-0.1c0,0,0,0,0,0.1c-17.7,56.8-58.6,108-123.2,111.6h0c-2.4,0.1-4.8,0.2-7.3,0.2
	l-301.6,0c-0.1,0-0.1-0.1,0-0.1c26.4-9.9,53.5-56.5,53.5-109.4V282.9c0-25.8-18.7-47.1-43.3-51.3c-2.8-0.5-5.8-0.7-8.8-0.7H68.3
	l64-110.8h534.4l-52.8,91.4l-11.2,19.4h-87.4h-20.3c-4,0-7.9,0.1-11.8,0.5c0,0,0,0,0,0c-4.2,0.3-8.3,0.8-12.4,1.5
	c-19.1,3.1-37.1,9.7-53.1,19.2c-6.2,3.7-12,8.2-17.1,13.3h0c-17,17-30.1,36.5-39.2,57.3c0,0,0,0,0,0c-9.2,21.1-14.3,43.6-15.3,66.2
	c-0.1,2.1-0.1,4.1,0.1,6.2c0,0,0,0,0,0c0,0.3,0,0.5,0.1,0.8c0,0.9,0.1,1.9,0.2,2.8c0,0.2,0,0.4,0.1,0.6c0.1,0.9,0.2,1.8,0.3,2.7
	c0,0.2,0,0.4,0.1,0.7c0.1,0.6,0.2,1.2,0.3,1.8c0.2,1.2,0.4,2.3,0.6,3.5c0,0.3,0.1,0.7,0.2,1c0.1,0.5,0.2,1.1,0.3,1.6
	c0.1,0.7,0.3,1.5,0.5,2.2c0,0.1,0,0.1,0,0.2c0.2,0.9,0.4,1.8,0.7,2.7c0.1,0.4,0.2,0.8,0.3,1.2c0.4,1.7,0.9,3.4,1.5,5.1
	c0,0.1,0.1,0.2,0.1,0.3c0.1,0.5,0.3,1,0.5,1.5c0.2,0.6,0.4,1.2,0.6,1.8c0.2,0.5,0.4,1,0.6,1.5c0.7,1.9,1.4,3.8,2.2,5.6
	c0.4,0.9,0.8,1.9,1.2,2.8c1.5,3.2,3,6.2,4.8,9.2c0.4,0.8,0.9,1.6,1.4,2.3c0.5,0.8,0.9,1.6,1.4,2.3c1.6,2.6,3.4,5.1,5.2,7.5
	c0.5,0.7,1,1.3,1.5,2c0.2,0.2,0.3,0.4,0.5,0.6c0.4,0.6,0.9,1.1,1.4,1.7c1.7,2.1,3.5,4.1,5.4,6c0.6,0.6,1.2,1.2,1.8,1.8
	c0.2,0.2,0.3,0.4,0.5,0.5c0.7,0.7,1.3,1.3,2,2c0.1,0.1,0.1,0.1,0.2,0.2c0.7,0.6,1.4,1.3,2.1,1.9c0.2,0.1,0.3,0.3,0.5,0.5
	c0.8,0.7,1.7,1.4,2.5,2.1c0.9,0.7,1.8,1.4,2.6,2.1c0,0,0,0,0,0c0.9,0.7,1.8,1.4,2.7,2.1c1.8,1.4,3.7,2.7,5.6,3.9v0
	c2.2,1.5,4.6,2.9,6.9,4.2c0.6,0.3,1.3,0.7,1.9,1c0.8,0.4,1.6,0.9,2.4,1.3c0.8,0.4,1.6,0.8,2.5,1.2c1.8,0.8,3.5,1.6,5.3,2.3
	c0.8,0.3,1.5,0.6,2.3,0.9c1.4,0.5,2.8,1.1,4.3,1.6c0.5,0.2,1,0.3,1.5,0.5c1.6,0.5,3.2,1,4.8,1.4c0.9,0.3,1.8,0.5,2.7,0.7
	c0.9,0.2,1.8,0.5,2.7,0.7c0.9,0.2,1.8,0.4,2.7,0.6c0.9,0.2,1.9,0.4,2.8,0.5c0.7,0.1,1.4,0.2,2,0.3c0.3,0,0.6,0.1,0.9,0.1
	c0.7,0.1,1.4,0.2,2.1,0.3c0.7,0.1,1.3,0.2,2,0.2c2.4,0.3,4.8,0.5,7.2,0.6c0.8,0,1.7,0.1,2.5,0.1c1.1,0,2.2,0.1,3.3,0.1h0.7
	c0.6,0,1.1,0,1.7,0c0,0,0,0,0,0c1.3,0,2.6-0.1,3.9-0.2c0.6,0,1.3-0.1,1.9-0.2c0.5,0,1.1-0.1,1.6-0.2c0.3,0,0.6-0.1,0.9-0.1
	c0.4,0,0.8-0.1,1.3-0.2c1-0.2,2.1-0.4,3-0.6c0.4-0.1,0.9-0.2,1.3-0.3c0.4-0.1,0.8-0.2,1.1-0.3c0,0,0,0,0,0c0.9-0.2,1.7-0.4,2.6-0.7
	c1.2-0.3,2.3-0.7,3.4-1.1c0.8-0.3,1.6-0.6,2.4-0.9c0.1,0,0.1,0,0.2-0.1c0.7-0.3,1.5-0.6,2.2-0.9c1.1-0.5,2.2-1,3.2-1.5
	c1-0.5,2-1,2.9-1.5c0,0,0,0,0,0c0.7-0.4,1.4-0.8,2.1-1.2c0.8-0.5,1.6-1,2.4-1.5c0,0,0.1-0.1,0.1-0.1c0.7-0.5,1.4-0.9,2.1-1.4
	c1-0.7,1.9-1.4,2.8-2.1c0.6-0.5,1.2-0.9,1.8-1.4c0.9-0.7,1.7-1.5,2.6-2.2c0.6-0.6,1.2-1.1,1.8-1.7c0.2-0.2,0.4-0.4,0.7-0.7
	c0.5-0.5,1-1.1,1.5-1.6c0.7-0.7,1.3-1.4,1.9-2.1c0,0,0,0,0,0c0.6-0.6,1.1-1.3,1.6-2c0.9-1.1,1.7-2.2,2.5-3.4c0.3-0.5,0.7-0.9,1-1.4
	c0.3-0.5,0.6-0.9,0.9-1.4c0.6-1,1.2-2,1.8-2.9c0.3-0.5,0.6-1,0.8-1.5c0.2-0.4,0.4-0.7,0.6-1.1c0.4-0.7,0.8-1.5,1.1-2.3
	c0.4-0.8,0.8-1.7,1.1-2.5c0.3-0.6,0.5-1.3,0.8-1.9c0.2-0.5,0.4-1.1,0.6-1.6c0.2-0.6,0.5-1.3,0.7-2c0.3-0.9,0.6-1.9,0.9-2.8
	c0.3-1.2,0.7-2.4,0.9-3.7c0.1-0.5,0.2-1,0.3-1.6c0.1-0.6,0.2-1.2,0.3-1.7c0.1-0.4,0.1-0.7,0.2-1.1c0-0.2,0.1-0.5,0.1-0.7
	c0.2-1.5,0.4-3.1,0.5-4.6c0-0.4,0.1-0.8,0.1-1.2c0-0.8,0.1-1.6,0.1-2.4c0-0.3,0-0.6,0-0.9c0-0.5,0-1,0-1.6
	c0-20.9-14.3-38.5-33.7-43.5c-0.4-0.1-0.9-0.2-1.3-0.3c-1.9-0.4-3.8-0.7-5.9-0.9c-0.1,0-0.1,0-0.2,0c-2.8-0.3-5.8-0.5-9-0.6h-33.3
	l12.6-21.9l37-64.1c40.3,5.4,67.2,10.6,86.3,17.5c26.2,9.5,37.5,22.1,48.3,42.4C636.5,365.8,638.9,371.6,640.7,377.7
	c0,0.1,0.1,0.3,0.1,0.5"/>
<g>
	<path d="M162.4,106.1V44.8h-21.9V32.4h58.6v12.5h-21.8v61.3H162.4z"/>
	<path d="M208.8,106.1V32.4h14.9v29h29.2v-29h14.9v73.8h-14.9V73.9h-29.2v32.2H208.8z"/>
	<path d="M283,32.4h14.9v39.9c0,6.3,0.2,10.4,0.6,12.3c0.6,3,2.2,5.4,4.6,7.3c2.4,1.8,5.7,2.7,9.8,2.7c4.2,0,7.4-0.9,9.6-2.6
		c2.1-1.7,3.4-3.8,3.9-6.4c0.4-2.5,0.7-6.7,0.7-12.5V32.4h14.9v38.7c0,8.9-0.4,15.1-1.2,18.8c-0.8,3.7-2.3,6.7-4.5,9.3
		c-2.2,2.5-5.1,4.5-8.7,6c-3.6,1.5-8.4,2.2-14.2,2.2c-7,0-12.4-0.8-16-2.4c-3.6-1.6-6.5-3.7-8.6-6.3c-2.1-2.6-3.5-5.3-4.2-8.2
		c-1-4.2-1.5-10.5-1.5-18.7V32.4z"/>
	<path d="M357.9,106.1V33h14.9v60.7h37v12.4H357.9z"/>
	<path d="M420,106.1V32.4h14.9v73.8H420z"/>
	<path d="M449,32.4h14.9v39.9c0,6.3,0.2,10.4,0.6,12.3c0.6,3,2.2,5.4,4.6,7.3c2.4,1.8,5.7,2.7,9.8,2.7c4.2,0,7.4-0.9,9.6-2.6
		c2.1-1.7,3.4-3.8,3.9-6.4c0.4-2.5,0.7-6.7,0.7-12.5V32.4h14.9v38.7c0,8.9-0.4,15.1-1.2,18.8c-0.8,3.7-2.3,6.7-4.5,9.3
		c-2.2,2.5-5.1,4.5-8.7,6c-3.6,1.5-8.4,2.2-14.2,2.2c-7,0-12.4-0.8-16-2.4c-3.6-1.6-6.5-3.7-8.6-6.3c-2.1-2.6-3.5-5.3-4.2-8.2
		c-1-4.2-1.5-10.5-1.5-18.7V32.4z"/>
	<path d="M523.3,106.1V32.4h22.3L559,82.7l13.2-50.3h22.3v73.8h-13.8V48l-14.6,58.1h-14.3L537.1,48v58.1H523.3z"/>
</g>
<path class="st1" d="M516,32"/>
<g>
	<path class="st1" d="M220.4,178.8v-12.4h32.1v29.4c-3.1,3-7.6,5.7-13.6,8c-5.9,2.3-11.9,3.4-18,3.4c-7.7,0-14.4-1.6-20.2-4.9
		c-5.7-3.2-10-7.9-12.9-13.9c-2.9-6-4.3-12.6-4.3-19.6c0-7.7,1.6-14.5,4.8-20.5c3.2-6,7.9-10.5,14.1-13.7c4.7-2.4,10.6-3.7,17.7-3.7
		c9.2,0,16.3,1.9,21.5,5.8c5.1,3.8,8.5,9.1,9.9,15.9l-14.8,2.8c-1-3.6-3-6.5-5.9-8.6c-2.9-2.1-6.4-3.1-10.7-3.1
		c-6.5,0-11.7,2.1-15.5,6.2c-3.8,4.1-5.8,10.2-5.8,18.4c0,8.8,1.9,15.3,5.8,19.7c3.9,4.4,9,6.6,15.3,6.6c3.1,0,6.2-0.6,9.4-1.8
		c3.1-1.2,5.8-2.7,8.1-4.5v-9.4H220.4z"/>
	<path class="st1" d="M332.8,205.9h-16.2l-6.4-16.8h-29.5l-6.1,16.8h-15.8l28.7-73.8h15.7L332.8,205.9z M305.4,176.8l-10.2-27.4
		l-10,27.4H305.4z"/>
	<path class="st1" d="M340.5,205.9v-73.8h22.3l13.4,50.3l13.2-50.3h22.3v73.8h-13.8v-58.1l-14.6,58.1h-14.3l-14.6-58.1v58.1H340.5z"
		/>
	<path class="st1" d="M426.5,205.9v-73.8h54.7v12.5h-39.8V161h37v12.4h-37v20.1h41.2v12.4H426.5z"/>
	<path class="st1" d="M491.5,181.9l14.5-1.4c0.9,4.9,2.6,8.4,5.3,10.7c2.7,2.3,6.3,3.4,10.8,3.4c4.8,0,8.4-1,10.8-3
		c2.4-2,3.6-4.4,3.6-7.1c0-1.7-0.5-3.2-1.5-4.5c-1-1.2-2.8-2.3-5.4-3.2c-1.7-0.6-5.7-1.7-11.9-3.2c-8-2-13.6-4.4-16.8-7.3
		c-4.5-4.1-6.8-9-6.8-14.8c0-3.8,1.1-7.3,3.2-10.5c2.1-3.3,5.2-5.8,9.2-7.5c4-1.7,8.8-2.6,14.5-2.6c9.3,0,16.2,2,20.9,6.1
		c4.7,4.1,7.1,9.5,7.4,16.3l-14.9,0.7c-0.6-3.8-2-6.5-4.1-8.2c-2.1-1.7-5.2-2.5-9.4-2.5c-4.3,0-7.7,0.9-10.2,2.7
		c-1.6,1.1-2.4,2.7-2.4,4.6c0,1.7,0.7,3.2,2.2,4.5c1.9,1.6,6.4,3.2,13.7,4.9c7.2,1.7,12.6,3.5,16.1,5.3c3.5,1.8,6.2,4.3,8.2,7.5
		s2.9,7.1,2.9,11.7c0,4.2-1.2,8.2-3.5,11.9c-2.3,3.7-5.7,6.4-10,8.2c-4.3,1.8-9.6,2.7-16,2.7c-9.3,0-16.5-2.2-21.5-6.5
		C495.4,196.5,492.4,190.2,491.5,181.9z"/>
</g>
</svg>
